<svg width="24" height="24" viewBox="0 0 24 24" fill="none" xmlns="http://www.w3.org/2000/svg">
<g clip-path="url(#clip0_2733_11033)">
<path d="M1.82501 10.5983C1.77827 10.5983 1.76658 10.5752 1.78995 10.5405L2.03534 10.2282C2.05871 10.1935 2.11714 10.1704 2.16388 10.1704H6.3355C6.38224 10.1704 6.39393 10.2051 6.37056 10.2398L6.17191 10.5405C6.14854 10.5752 6.09011 10.6099 6.05506 10.6099L1.82501 10.5983Z" fill="#898EA7"/>
<path d="M0.0604128 11.6623C0.013672 11.6623 0.00198663 11.6391 0.0253571 11.6044L0.270747 11.2922C0.294117 11.2575 0.352543 11.2344 0.399284 11.2344H5.72774C5.77448 11.2344 5.79785 11.2691 5.78617 11.3038L5.69269 11.5813C5.681 11.6276 5.63426 11.6507 5.58752 11.6507L0.0604128 11.6623Z" fill="#898EA7"/>
<path d="M2.88836 12.7262C2.84162 12.7262 2.82994 12.6915 2.85331 12.6568L3.0169 12.3677C3.04027 12.333 3.08701 12.2983 3.13375 12.2983H5.4708C5.51754 12.2983 5.54091 12.333 5.54091 12.3793L5.51754 12.6568C5.51754 12.7031 5.4708 12.7378 5.43574 12.7378L2.88836 12.7262Z" fill="#898EA7"/>
<path fill-rule="evenodd" clip-rule="evenodd" d="M10.6817 7.99592C11.7801 7.79932 12.8319 7.92724 13.7784 8.5633C14.3976 8.96799 14.8418 9.52261 15.1339 10.1932C15.204 10.2972 15.1577 10.3558 15.0177 10.3905C14.2815 10.5755 13.7783 10.7142 13.0538 10.8992C12.879 10.9454 12.8667 10.9564 12.715 10.783C12.5399 10.5867 12.4113 10.4591 12.1661 10.3436C11.43 9.98517 10.7169 10.0895 10.0509 10.5174C9.25645 11.0263 8.84783 11.778 8.85948 12.7147C8.87117 13.6398 9.5136 14.4028 10.4366 14.5301C11.2311 14.6342 11.8972 14.357 12.423 13.7674C12.528 13.6403 12.6217 13.5014 12.7384 13.3397H10.4835C10.2381 13.3397 10.18 13.1886 10.2618 12.992C10.4138 12.6335 10.694 12.0319 10.8575 11.7313C10.8927 11.6618 10.9746 11.5467 11.1495 11.5467H14.9112C15.0801 11.0172 15.3534 10.5162 15.7189 10.0428C16.5718 8.9328 17.6 8.35498 18.9903 8.11213C20.1822 7.90396 21.3038 8.01963 22.3204 8.70198C23.2434 9.3264 23.8159 10.1701 23.9679 11.2801C24.1665 12.8414 23.7109 14.1139 22.6241 15.201C21.853 15.9757 20.9069 16.4617 19.8204 16.6815C19.5049 16.7393 19.1887 16.7513 18.8849 16.786C17.8216 16.7628 16.8522 16.4613 16.0343 15.7674C15.4579 15.2743 15.0638 14.6676 14.8673 13.9617C14.7302 14.2364 14.5668 14.4997 14.3751 14.7498C13.5338 15.8485 12.4346 16.5316 11.0441 16.7166C9.89914 16.8669 8.83613 16.6466 7.90147 15.953C7.03678 15.3053 6.54564 14.4495 6.4171 13.3856C6.26519 12.125 6.63904 10.9915 7.41026 9.9969C8.23984 8.92145 9.33812 8.23884 10.6817 7.99592ZM21.631 11.7313C21.4205 10.5865 20.3572 9.93878 19.2472 10.1932C18.1605 10.4361 17.4593 11.1188 17.2023 12.2059C16.992 13.1079 17.4362 14.0213 18.2775 14.3914C18.92 14.6689 19.5625 14.6342 20.1817 14.3221C21.1049 13.8479 21.6077 13.1077 21.6661 12.1131C21.6544 11.9628 21.6543 11.8469 21.631 11.7313Z" fill="#898EA7"/>
</g>
<defs>
<clipPath id="clip0_2733_11033">
<rect width="24" height="24" fill="white"/>
</clipPath>
</defs>
</svg>
