<svg width="47" height="40" viewBox="0 0 47 40" fill="none" xmlns="http://www.w3.org/2000/svg">
  <path fill-rule="evenodd" clip-rule="evenodd" d="M46.2315 37.8279H45.9869L44.0303 34.9671L30.2364 14.7988L33.5097 10.0112C33.7352 9.68264 33.6427 9.2392 33.3057 9.01934C32.9686 8.79947 32.5136 8.88964 32.2881 9.21821L29.3531 13.5093L27.3002 10.5078L30.5735 5.72013C30.7978 5.39156 30.7065 4.94813 30.3694 4.72826C30.0324 4.50963 29.5774 4.59857 29.3519 4.92713L26.4169 9.21821L24.364 6.21668L27.6385 1.42905C27.8641 1.10049 27.7716 0.657052 27.4345 0.437187C27.0974 0.218557 26.6425 0.307491 26.4169 0.636054L23.482 4.92713L20.5471 0.636054C20.3215 0.307491 19.8666 0.219792 19.5295 0.437187C19.1924 0.657052 19.1011 1.10049 19.3254 1.42905L22.6 6.21668L2.93493 34.9684L0.978309 37.8291H0.733732C0.328215 37.8291 0 38.149 0 38.5443C0 38.9395 0.328215 39.2594 0.733732 39.2594H46.2302C46.6358 39.2594 46.964 38.9395 46.964 38.5443C46.964 38.149 46.6358 37.8291 46.2302 37.8291L46.2315 37.8279ZM6.84944 37.8279H2.74358L4.15022 35.7712L4.15782 35.7601L23.4833 7.50375L25.5362 10.5065L6.85071 37.8279H6.84944ZM12.7206 37.8279H8.61344L19.7728 21.5109L26.4169 11.7961L28.4699 14.7988L12.7193 37.8279H12.7206ZM23.4833 37.8279H14.4846L22.709 25.802L29.3531 16.0871L42.8087 35.7601L42.8163 35.7712L44.2229 37.8279H23.4833Z" fill="#141D50"/>
</svg>
