<svg width="24" height="24" viewBox="0 0 24 24" fill="none" xmlns="http://www.w3.org/2000/svg">
<path d="M12.0009 23.8499C11.6812 23.8499 11.3827 23.7635 11.1053 23.6123L8.26881 21.9065C7.8423 21.6689 8.05556 21.5825 8.18333 21.5393C8.7592 21.3449 8.86598 21.3017 9.46315 20.9561C9.52704 20.9129 9.61222 20.9345 9.67611 20.9777L11.8518 22.295C11.937 22.3382 12.0438 22.3382 12.1077 22.295L20.6171 17.3066C20.7026 17.2634 20.7452 17.1773 20.7452 17.0693V7.11409C20.7452 7.00609 20.7026 6.91969 20.6174 6.87649L12.1077 1.90969C12.0225 1.86649 11.9154 1.86649 11.8518 1.90969L3.34209 6.87649C3.25632 6.91969 3.21373 7.02769 3.21373 7.11409V17.0693C3.21373 17.1554 3.25661 17.2634 3.3418 17.3066L5.66658 18.6671C6.92481 19.3151 7.71394 18.5591 7.71394 17.8034V7.97779C7.71394 7.84819 7.82042 7.71859 7.96978 7.71859H9.05764C9.18542 7.71859 9.31349 7.82659 9.31349 7.97779V17.8034C9.31349 19.5095 8.39658 20.5028 6.79674 20.5028C6.30635 20.5028 5.92243 20.5028 4.83487 19.9628L2.59526 18.6671C2.32295 18.507 2.09691 18.2771 1.93978 18.0004C1.78265 17.7238 1.69994 17.4102 1.69995 17.0909V7.13569C1.69992 6.81636 1.78265 6.50262 1.93984 6.22593C2.09702 5.94924 2.32315 5.71931 2.59556 5.55919L11.105 0.570794C11.6386 0.268394 12.3635 0.268394 12.8968 0.570794L21.4062 5.55919C21.6787 5.71927 21.9049 5.94918 22.0621 6.22588C22.2194 6.50257 22.3021 6.81633 22.3021 7.13569V17.0909C22.3021 17.4102 22.2193 17.7239 22.062 18.0005C21.9048 18.2772 21.6787 18.507 21.4062 18.6671L12.8968 23.6555C12.641 23.7635 12.3209 23.8499 12.0009 23.8499Z" fill="#898EA7"/>
<path d="M14.6457 17.0045C10.913 17.0045 10.1455 15.2768 10.1455 13.8083C10.1455 13.6787 10.252 13.5491 10.4013 13.5491H11.5105C11.6386 13.5491 11.745 13.6355 11.745 13.7651C11.9157 14.9096 12.4061 15.4712 14.667 15.4712C16.4585 15.4712 17.226 15.0608 17.226 14.0891C17.226 13.5278 17.0131 13.1171 14.2189 12.8366C11.8941 12.599 10.4442 12.0806 10.4442 10.202C10.4442 8.45299 11.8944 7.41649 14.3257 7.41649C17.0557 7.41649 18.3991 8.36659 18.57 10.4396C18.57 10.5044 18.5485 10.5692 18.5059 10.634C18.4633 10.6772 18.3994 10.7204 18.3352 10.7204H17.2048C17.1501 10.7185 17.0975 10.6985 17.0551 10.6634C17.0127 10.6283 16.9829 10.58 16.9702 10.526C16.7144 9.33799 16.0533 8.94949 14.3044 8.94949C12.3422 8.94949 12.1077 9.64069 12.1077 10.1588C12.1077 10.7852 12.3848 10.9796 15.0296 11.3249C17.6529 11.6705 18.8895 12.1673 18.8895 14.0243C18.8895 15.9248 17.3328 17.0045 14.6457 17.0045Z" fill="#898EA7"/>
</svg>
