<svg width="24" height="24" viewBox="0 0 24 24" fill="none" xmlns="http://www.w3.org/2000/svg">
<path d="M6.67383 12.7046C7.18236 12.7045 7.56238 12.6101 7.80273 12.4253C8.04053 12.2422 8.20492 11.9244 8.29102 11.4819C8.37112 11.0688 8.34045 10.7804 8.2002 10.6245C8.05639 10.4655 7.7452 10.3843 7.27637 10.3843H6.46289L6.0127 12.7046H6.67383Z" fill="#898EA7"/>
<path d="M17.127 12.7046C17.6355 12.7046 18.0155 12.6101 18.2559 12.4253C18.4937 12.2422 18.658 11.9245 18.7441 11.4819C18.8243 11.0687 18.7937 10.7804 18.6533 10.6245C18.5095 10.4655 18.1983 10.3843 17.7295 10.3843H16.917L16.4658 12.7046H17.127Z" fill="#898EA7"/>
<path fill-rule="evenodd" clip-rule="evenodd" d="M12 18.1343C18.4408 18.1342 23.6621 15.3877 23.6621 11.9995C23.6618 8.61156 18.4406 5.86484 12 5.86475C5.55929 5.86475 0.337247 8.61151 0.336914 11.9995C0.336914 15.3877 5.55908 18.1343 12 18.1343ZM9.71484 13.9272C9.67722 13.9271 9.64113 13.9104 9.61719 13.8813C9.59331 13.8523 9.58366 13.8138 9.59082 13.7769L10.7852 7.62842C10.7968 7.56926 10.8499 7.5261 10.9102 7.52588H12.2383C12.276 7.52588 12.3119 7.54374 12.3359 7.57275C12.3599 7.60193 12.3695 7.64019 12.3623 7.67725L12.0742 9.16064H13.1045C13.8889 9.16064 14.4214 9.29913 14.7314 9.5835C15.0474 9.87388 15.1459 10.3389 15.0244 10.9644L14.4688 13.8247C14.4572 13.884 14.4051 13.927 14.3447 13.9272H12.9941C12.9566 13.927 12.9203 13.9103 12.8965 13.8813C12.8727 13.8523 12.863 13.8137 12.8701 13.7769L13.3984 11.0562C13.4486 10.7978 13.4369 10.6122 13.3643 10.5337C13.3195 10.4857 13.185 10.4058 12.79 10.4058H11.832L11.168 13.8247C11.1564 13.884 11.1043 13.927 11.0439 13.9272H9.71484ZM4.01367 15.562C3.97619 15.5619 3.93992 15.545 3.91602 15.5161C3.8922 15.4871 3.88164 15.4485 3.88867 15.4116L5.08398 9.26318C5.09551 9.20402 5.14778 9.16101 5.20801 9.16064H7.78418C8.59312 9.16073 9.19561 9.38076 9.57422 9.81396C9.95488 10.2497 10.0726 10.859 9.92383 11.6245C9.86325 11.9364 9.75914 12.2265 9.61426 12.4858C9.46921 12.7454 9.277 12.9855 9.04395 13.1997C8.765 13.4607 8.44927 13.6508 8.10645 13.7622C7.76892 13.8721 7.33461 13.9272 6.81738 13.9272H5.77441L5.47656 15.4595C5.46497 15.5189 5.41308 15.562 5.35254 15.562H4.01367ZM14.4668 15.562C14.4293 15.5619 14.393 15.5451 14.3691 15.5161C14.3453 15.4871 14.3357 15.4485 14.3428 15.4116L15.5371 9.26318C15.5487 9.2039 15.6017 9.16087 15.6621 9.16064H18.2373C19.0463 9.16069 19.6486 9.38081 20.0273 9.81396C20.408 10.2497 20.5257 10.859 20.377 11.6245C20.3163 11.9364 20.2123 12.2265 20.0674 12.4858C19.9223 12.7453 19.7301 12.9855 19.4971 13.1997C19.2181 13.4607 18.9024 13.6508 18.5596 13.7622C18.222 13.8721 17.7877 13.9272 17.2705 13.9272H16.2275L15.9307 15.4595C15.919 15.5189 15.8663 15.562 15.8057 15.562H14.4668Z" fill="#898EA7"/>
</svg>
