<svg width="24" height="24" viewBox="0 0 24 24" fill="none" xmlns="http://www.w3.org/2000/svg">
<path d="M11.9626 1C6.7684 1 6.7126 3.0162 6.7126 3.4312C6.7126 4.0608 6.7126 5.95 6.7126 5.95H12.0626V6.7062C12.0626 6.7062 6.4922 6.7062 4.5876 6.7062C2.9978 6.7062 1 7.6728 1 11.9562C1 15.8908 2.5584 17.4124 4.1312 17.4124C4.5982 17.4124 6 17.4124 6 17.4124C6 17.4124 6 15.4594 6 14.7874C6 13.6892 6.5442 11.6562 9.0812 11.6562C12.2632 11.6562 13.0754 11.6562 14.3874 11.6562C15.1678 11.6562 17.3686 11.317 17.3686 8.775C17.3686 6.0846 17.3686 5.197 17.3686 3.9312C17.3688 3.3006 17.261 1 11.9626 1ZM9.0126 2.6938C9.545 2.6938 9.9752 3.1238 9.9752 3.6564C9.9752 4.1886 9.545 4.619 9.0126 4.619C8.4802 4.619 8.05 4.1888 8.05 3.6564C8.05 3.1238 8.4802 2.6938 9.0126 2.6938Z" fill="#898EA7"/>
<path d="M12.0373 22.9999C17.2291 22.9999 17.2937 20.9457 17.2937 20.5687C17.2937 19.9391 17.2937 18.0499 17.2937 18.0499H11.9373V17.2937C11.9373 17.2937 17.5437 17.2937 19.4123 17.2937C21.0141 17.2937 22.9999 16.3029 22.9999 12.0437C22.9999 7.3793 20.8923 6.5875 19.8687 6.5875C19.4015 6.5875 17.9999 6.5875 17.9999 6.5875C17.9999 6.5875 17.9999 8.6307 17.9999 9.2125C17.9999 10.3107 17.4737 12.3437 14.9187 12.3437C11.7367 12.3437 11.0235 12.3437 9.61234 12.3437C8.83394 12.3437 6.63114 12.7229 6.63114 15.2249C6.63114 18.1199 6.63114 18.8779 6.63114 20.0687C6.63114 21.1147 7.27034 22.9999 12.0373 22.9999ZM14.9875 21.3061C14.4551 21.3061 14.0249 20.8759 14.0249 20.3435C14.0249 19.8111 14.4549 19.3809 14.9875 19.3809C15.5197 19.3809 15.9501 19.8111 15.9501 20.3435C15.9501 20.8759 15.5197 21.3061 14.9875 21.3061Z" fill="#898EA7"/>
</svg>
