<svg width="24" height="24" viewBox="0 0 24 24" fill="none" xmlns="http://www.w3.org/2000/svg">
<path d="M7.52294 19.5605L20.6147 21.3477C19.1173 18.8548 17.6585 16.4257 16.1879 13.9768L7.52294 19.5605ZM21.853 5.76193L16.7146 13.492C16.6408 13.6031 16.5451 13.6913 16.6491 13.8627C17.9295 15.9772 19.1999 18.0978 20.4735 20.2166C20.6745 20.5512 20.8776 20.8846 21.1375 21.2057L21.9097 5.77822L21.853 5.76193ZM4.37307 12.3548C4.43297 12.4115 4.58248 12.4446 4.65213 12.4102C5.88035 11.8066 7.1164 11.2163 8.31779 10.563C8.70963 10.3501 9.01089 9.9683 9.34842 9.65873C10.4661 8.63369 11.582 7.60658 12.6975 6.57931C12.7657 6.51621 12.8465 6.45519 12.8872 6.37564C13.2879 5.59261 13.6816 4.80558 14.0893 3.99587C13.6032 3.81313 13.1423 3.63438 12.6758 3.47177C12.6125 3.44972 12.5128 3.49349 12.4443 3.53167C11.3643 4.135 10.264 4.70622 9.21839 5.36418C8.69525 5.6934 8.26907 6.17852 7.80583 6.60103C7.05922 7.28247 6.31356 7.96551 5.57781 8.65877C5.38152 8.84489 5.20547 9.05124 5.05259 9.2744C4.54942 10.0071 4.06126 10.7504 3.55074 11.5147C3.83603 11.8098 4.09544 12.0919 4.37307 12.3548ZM8.86202 11.3531L7.01609 19.1519L15.6898 13.5632L8.86202 11.3531ZM21.1029 5.78685L13.731 7.01842L16.2328 13.1038L21.1029 5.78685ZM8.96457 10.8251L15.6563 12.9976C14.8177 10.9545 14.0078 8.98288 13.1812 6.96954L8.96457 10.8251ZM4.46556 13.86L2.12348 19.4585L6.58416 19.3267L4.46556 13.86ZM6.63687 18.0285L6.69214 18.0164C7.22774 15.7895 7.77101 13.5779 8.31779 11.2639L4.73919 13.1239C5.34923 14.7095 5.99968 16.3821 6.63687 18.0285ZM20.2029 5.42568C19.4906 5.23703 18.7784 5.04774 18.0658 4.86037C17.0415 4.59105 16.0165 4.32509 14.9929 4.05337C14.865 4.01935 14.7725 3.99715 14.6972 4.15129C14.3354 4.89248 13.9624 5.62807 13.5949 6.36654C13.5835 6.38938 13.5859 6.41893 13.5772 6.47628L20.2015 5.47232L20.2029 5.42568ZM16.0707 3.73981L21.876 5.34581L20.9168 2.6127L16.0791 3.68534L16.0707 3.73981ZM7.12902 19.9882C6.41004 19.9053 5.6719 19.9815 4.94269 19.9941C4.34368 20.0041 3.74466 20.027 3.14564 20.0457C3.08398 20.0476 3.02249 20.06 2.96099 20.1265C7.91334 20.5843 12.8655 21.0421 17.8177 21.5002L17.8278 21.4341L13.0652 20.784C11.087 20.5139 9.11217 20.2168 7.12902 19.9882ZM2.2214 17.7498C2.85955 16.269 3.49499 14.7873 4.1357 13.3076C4.19975 13.1592 4.1948 13.0584 4.06941 12.9389C3.80137 12.6838 3.55234 12.4089 3.25938 12.1042C2.86339 14.0593 2.47714 15.9661 2.09058 17.8728L2.13387 17.893C2.16342 17.8456 2.19952 17.8007 2.2214 17.7498ZM14.7991 3.34893C15.8753 3.07131 16.9671 2.85422 18.0525 2.61206C18.1228 2.59625 18.1915 2.57308 18.2607 2.55328L18.25 2.50024L13.5866 3.12769C14.0244 3.3189 14.3618 3.46171 14.7991 3.34893Z" fill="#898EA7"/>
</svg>
