<svg width="24" height="24" viewBox="0 0 24 24" fill="none" xmlns="http://www.w3.org/2000/svg">
<path d="M13.008 6.90112H10.7811V8.92579H13.008V6.90112Z" fill="#898EA7"/>
<path d="M13.008 9.33346H10.7811V11.3346H13.008V9.33346Z" fill="#898EA7"/>
<path d="M10.3769 6.90112H8.15006V8.92579H10.3769V6.90112Z" fill="#898EA7"/>
<path d="M15.6425 9.3301H13.4156V11.3312H15.6425V9.3301Z" fill="#898EA7"/>
<path d="M13.008 4.4519H10.7811V6.49683H13.008V4.4519Z" fill="#898EA7"/>
<path d="M7.74571 6.90112H5.51891V8.92579H7.74571V6.90112Z" fill="#898EA7"/>
<path d="M10.3769 9.3301H8.15006V11.3312H10.3769V9.3301Z" fill="#898EA7"/>
<path d="M22.3331 10.27C21.848 9.94321 20.7295 9.82532 19.8704 9.98709C19.7593 9.17854 19.3078 8.47443 18.4859 7.84106L18.0142 7.5277L17.7008 7.99936C17.0809 8.93592 16.9125 10.4789 17.5762 11.4963C17.2832 11.6546 16.7069 11.8703 15.9457 11.8567H1.30106C1.008 13.5682 1.49648 15.7917 2.78343 17.3177C4.03326 18.7967 5.90639 19.548 8.35556 19.548C13.6582 19.548 17.5829 17.1056 19.419 12.6686C20.14 12.6821 21.6964 12.672 22.4949 11.146C22.5454 11.0617 22.7172 10.7012 22.7812 10.5698L22.3331 10.27Z" fill="#898EA7"/>
<path d="M5.11804 9.3301H2.8912V11.3312H5.11804V9.3301Z" fill="#898EA7"/>
<path d="M7.74571 9.3301H5.51891V11.3312H7.74571V9.3301Z" fill="#898EA7"/>
</svg>
