<svg width="24" height="24" viewBox="0 0 24 24" fill="none" xmlns="http://www.w3.org/2000/svg">
<path d="M15.0505 4.17677C15.3105 5.27905 16.3003 6.1002 17.4823 6.1002C18.8622 6.1002 19.9809 4.98151 19.9809 3.60161C19.9809 2.22171 18.8622 1.10303 17.4823 1.10303C16.2757 1.10303 15.2695 1.95815 15.0352 3.09557C13.0146 3.31228 11.4367 5.02603 11.4367 7.10291C11.4367 7.10759 11.4367 7.11111 11.4367 7.11579C9.23918 7.20833 7.23258 7.83386 5.63948 8.82134C5.04793 8.36333 4.30526 8.09039 3.49934 8.09039C1.56537 8.09039 -0.00195312 9.65772 -0.00195312 11.5917C-0.00195312 12.995 0.822708 14.2039 2.01402 14.7627C2.12998 18.8274 6.55903 22.0968 12.0072 22.0968C17.4553 22.0968 21.8902 18.8239 22.0003 14.7556C23.1823 14.1934 23.9999 12.988 23.9999 11.5929C23.9999 9.65889 22.4326 8.09157 20.4986 8.09157C19.6962 8.09157 18.9571 8.36216 18.3667 8.81666C16.7595 7.82215 14.7307 7.19662 12.5109 7.11345C12.5109 7.10994 12.5109 7.10759 12.5109 7.10408C12.5109 5.61641 13.6167 4.38176 15.0505 4.17911V4.17677ZM5.49891 13.8138C5.55748 12.544 6.40089 11.5694 7.38134 11.5694C8.3618 11.5694 9.11149 12.5991 9.05292 13.8689C8.99435 15.1387 8.26223 15.6002 7.2806 15.6002C6.29898 15.6002 5.44034 15.0836 5.49891 13.8138ZM16.6342 11.5694C17.6158 11.5694 18.4592 12.544 18.5166 13.8138C18.5752 15.0836 17.7154 15.6002 16.7349 15.6002C15.7545 15.6002 15.0212 15.1398 14.9626 13.8689C14.904 12.5991 15.6526 11.5694 16.6342 11.5694ZM15.4675 16.7517C15.6514 16.7704 15.7685 16.9614 15.6971 17.1324C15.0938 18.5744 13.6694 19.5876 12.0072 19.5876C10.345 19.5876 8.92173 18.5744 8.31729 17.1324C8.24583 16.9614 8.36297 16.7704 8.54688 16.7517C9.62456 16.6427 10.7901 16.583 12.0072 16.583C13.2243 16.583 14.3886 16.6427 15.4675 16.7517Z" fill="white"/>
</svg>
