<svg width="768" height="98" viewBox="0 0 768 98" fill="none" xmlns="http://www.w3.org/2000/svg">
    <g clip-path="url(#clip0_6_221)">
        <path d="M206.05 74.5H205.64C201.22 74.51 195.97 71.85 193.82 67.5C193.61 67.08 193.47 66.59 193.47 66.17C193.47 64.62 194.78 63.56 196.16 63.56C196.99 63.56 197.88 63.84 198.51 64.75C200.24 67.07 203.22 69.17 205.77 69.16H206.12C210.33 69.15 212.74 66.75 212.74 64.43C212.85 55.08 194.78 62.16 194.75 48.8C194.73 42.05 201.7 39.78 206.05 39.77H206.33C211.09 39.76 214.2 41.86 215.38 42.77C216.07 43.33 216.35 44.03 216.35 44.81C216.35 46.07 215.32 47.34 213.87 47.35C213.39 47.35 212.9 47.21 212.35 46.94C210.9 46.24 209.38 45.05 206.27 45.05H205.99C202.13 45.06 200.06 46.83 200 48.86C199.88 56.53 217.95 50.29 217.98 64.29V64.57C217.98 71.02 211.85 74.49 206.05 74.5Z" fill="white"/>
        <path d="M264.78 42.99L256.7 72.4C256.43 73.32 255.6 74.37 254.15 74.37H253.6C252.36 74.37 251.25 73.25 250.97 72.34C249.3 66.3 244.84 49.43 244.42 48.38C244.08 49.51 239.7 66.4 238.13 72.38C237.93 73.29 236.89 74.42 235.58 74.42H234.96C233.51 74.42 232.68 73.37 232.4 72.46L224.25 43.09C224.18 42.81 224.11 42.6 224.11 42.31C224.1 40.83 225.21 39.71 226.79 39.7C227.82 39.7 228.86 40.26 229.28 41.66L235.27 63.03L241.43 41.56C241.77 40.37 242.74 39.66 244.39 39.65H244.46C246.53 39.64 247.15 40.49 247.43 41.54L253.76 63.05L259.71 41.58C260.12 40.17 261.09 39.61 262.12 39.61C263.71 39.61 264.81 40.73 264.82 42.21C264.84 42.49 264.84 42.7 264.78 42.99Z" fill="white"/>
        <path d="M275.91 31.78C274.6 31.78 273.29 30.87 273.28 29.11V27.56C273.28 25.8 274.58 24.88 275.9 24.88C277.21 24.87 278.53 25.79 278.53 27.54V29.09C278.54 30.85 277.22 31.77 275.91 31.78ZM276.02 74.32C274.71 74.32 273.39 73.41 273.39 71.66L273.32 42.26C273.31 40.5 274.62 39.58 275.94 39.58C277.25 39.57 278.57 40.48 278.57 42.24L278.64 71.64C278.64 73.4 277.33 74.31 276.02 74.32Z" fill="white"/>
        <path d="M299.75 74.26H299.34C294.92 74.27 289.67 71.62 287.52 67.26C287.31 66.84 287.17 66.34 287.17 65.92C287.17 64.37 288.48 63.31 289.86 63.31C290.69 63.31 291.58 63.59 292.21 64.5C293.94 66.81 296.92 68.92 299.47 68.91H299.82C304.03 68.9 306.44 66.5 306.43 64.18C306.54 54.83 288.47 61.91 288.44 48.54C288.42 41.79 295.39 39.52 299.74 39.51H300C304.76 39.5 307.88 41.6 309.05 42.51C309.74 43.07 310.02 43.77 310.02 44.55C310.02 45.81 308.99 47.08 307.54 47.09C307.06 47.09 306.57 46.95 306.02 46.67C304.57 45.97 303.05 44.78 299.94 44.79H299.66C295.79 44.8 293.73 46.56 293.67 48.6C293.55 56.27 311.62 50.03 311.65 64.03V64.31C311.68 70.78 305.55 74.24 299.75 74.26Z" fill="white"/>
        <path d="M331.47 74.17H331.06C326.64 74.18 321.39 71.53 319.24 67.17C319.03 66.75 318.89 66.25 318.89 65.83C318.89 64.28 320.2 63.22 321.58 63.22C322.41 63.22 323.3 63.5 323.93 64.41C325.66 66.72 328.64 68.83 331.19 68.82H331.54C335.75 68.81 338.16 66.41 338.15 64.09C338.26 54.74 320.19 61.82 320.16 48.45C320.14 41.7 327.11 39.43 331.46 39.42H331.74C336.5 39.41 339.62 41.51 340.79 42.42C341.48 42.98 341.76 43.68 341.76 44.46C341.76 45.72 340.73 46.99 339.28 47C338.8 47 338.31 46.86 337.76 46.58C336.31 45.88 334.79 44.69 331.68 44.7H331.4C327.53 44.71 325.47 46.47 325.41 48.51C325.29 56.18 343.36 49.94 343.39 63.94V64.22C343.4 70.7 337.27 74.16 331.47 74.17Z" fill="white"/>
        <path d="M407.59 73.98C406.28 73.98 404.96 73.07 404.96 71.32L404.91 50.5C404.9 46.63 402.55 44.6 399.03 44.61H398.41C395.09 44.62 392.48 47.23 392.49 50.67L392.54 71.2C392.55 73.03 391.24 74.02 389.93 74.02C388.62 74.02 387.3 73.04 387.3 71.21L387.25 50.68C387.24 47.16 384.61 44.64 381.3 44.65H380.68C377.57 44.66 374.75 46.84 374.76 50.08L374.81 71.39C374.82 73.15 373.51 74.07 372.2 74.07C370.89 74.07 369.57 73.16 369.57 71.41L369.5 42.01C369.49 40.32 370.8 39.33 372.18 39.33C373.28 39.33 374.46 40.03 374.74 41.43C375.98 40.16 378.26 39.31 380.67 39.31H381.29C384.74 39.3 387.79 40.84 389.86 43.3C391.92 40.83 394.96 39.28 398.41 39.27H399.03C404.9 39.26 410.15 42.76 410.17 50.49L410.22 71.31C410.21 73.06 408.9 73.97 407.59 73.98Z" fill="white"/>
        <path d="M442.71 73.89L442.22 73.82C439.87 73.47 438.42 72.42 437.52 71.09C435.52 72.86 432.9 73.92 430.07 73.92H429.45C423.86 73.93 418.33 70.36 418.31 63.82C418.31 63.54 418.31 63.26 418.31 62.98C418.76 51.87 434.09 53.8 435.74 51.4C435.95 51.12 435.95 50.56 435.94 50.21C435.93 46.06 433.37 44.52 430.33 44.53H429.85C427.02 44.54 425.57 45.74 424.27 48.06C423.72 49.05 422.83 49.47 421.93 49.47C420.62 49.48 419.3 48.49 419.3 47.02C419.3 46.6 419.37 46.18 419.57 45.76C421.77 40.69 426.18 39.2 429.84 39.19H430.32C436.47 39.17 441.17 43.94 441.19 49.99L441.23 66.31C441.23 67.57 441.79 68.42 443.03 68.62C444.55 68.9 445.24 70.02 445.24 71.15C445.26 72.54 444.37 73.88 442.71 73.89ZM435.97 57.03C430.87 58.45 423.75 58.19 423.56 63.11C423.56 63.53 423.56 63.32 423.56 63.67C423.57 66.69 425.92 68.59 429.44 68.58H430.06C433.3 68.57 435.99 65.89 435.98 62.59L435.97 57.03Z" fill="white"/>
        <path d="M472.1 73.81C470.93 73.81 469.68 73.11 469.54 71.71C468.57 72.7 466.58 73.83 463.61 73.84H462.99C456.78 73.86 451.79 68.81 451.78 62.55L451.75 50.46C451.73 44.2 456.69 39.13 462.9 39.11H463.38C465.8 39.1 468.21 39.94 469.39 41.41L469.35 27.06C469.34 25.3 470.65 24.38 471.97 24.38C473.28 24.38 474.6 25.29 474.6 27.04L474.71 71.28C474.72 72.96 473.41 73.81 472.1 73.81ZM469.41 49.83C469.4 46.6 466.63 44.42 463.53 44.43H462.91C459.59 44.44 456.98 47.12 456.99 50.42L457.02 62.51C457.03 65.82 459.66 68.48 462.9 68.47H463.59C466.7 68.46 469.45 66.34 469.44 62.9L469.41 49.83Z" fill="white"/>
        <path d="M504.67 58.81L489.62 58.85L489.63 62.44C489.64 65.75 492.27 68.41 495.51 68.4H496.2C498.89 68.39 500.68 66.77 501.58 64.8C502.06 63.6 502.96 63.11 503.85 63.11C505.23 63.11 506.55 64.3 506.55 65.85C506.55 66.2 506.48 66.62 506.28 67.05C504.63 70.99 500.84 73.74 496.22 73.75H495.53C489.39 73.77 484.4 68.72 484.39 62.46L484.36 50.37C484.34 44.11 489.3 39.03 495.44 39.02H496.13C502.27 39 507.26 43.84 507.27 50.39L507.28 56.16C507.29 57.54 506.12 58.81 504.67 58.81ZM502.03 50.38C502.02 46.93 499.25 44.34 496.21 44.35H495.52C492.27 44.36 489.59 47.04 489.6 50.34L489.61 53.86L502.03 53.83V50.38Z" fill="white"/>
        <path d="M544.65 73.62H544.24C539.82 73.63 534.57 70.98 532.42 66.62C532.21 66.2 532.07 65.7 532.07 65.28C532.07 63.73 533.38 62.67 534.76 62.67C535.59 62.67 536.48 62.95 537.11 63.86C538.84 66.17 541.82 68.28 544.37 68.27H544.72C548.93 68.26 551.34 65.86 551.33 63.54C551.44 54.18 533.37 61.27 533.34 47.9C533.32 41.15 540.29 38.88 544.64 38.87H544.91C549.67 38.86 552.79 40.96 553.96 41.87C554.65 42.43 554.93 43.13 554.93 43.91C554.93 45.17 553.9 46.44 552.45 46.45C551.97 46.45 551.49 46.31 550.93 46.03C549.48 45.33 547.96 44.14 544.85 44.14H544.57C540.71 44.15 538.64 45.91 538.58 47.95C538.46 55.62 556.53 49.38 556.56 63.38V63.66C556.58 70.14 550.45 73.6 544.65 73.62Z" fill="white"/>
        <path d="M576.26 73.54H575.57C569.43 73.56 564.44 68.51 564.43 62.25L564.4 50.16C564.38 43.9 569.34 38.82 575.48 38.81H576.17C582.31 38.79 587.3 43.85 587.31 50.1L587.34 62.2C587.36 68.45 582.4 73.52 576.26 73.54ZM582.07 50.1C582.06 46.8 579.43 44.13 576.19 44.14H575.5C572.26 44.15 569.64 46.83 569.65 50.13L569.68 62.22C569.69 65.53 572.32 68.19 575.63 68.18H576.25C579.49 68.17 582.11 65.49 582.1 62.19L582.07 50.1Z" fill="white"/>
        <path d="M607.25 29.36C605.04 29.37 603.6 31.13 603.6 33.31L603.61 38.94L606.85 38.93C608.64 38.92 609.48 40.26 609.48 41.6C609.48 42.94 608.59 44.27 606.86 44.28L603.62 44.29L603.69 70.8C603.7 72.56 602.39 73.47 601.07 73.48C599.76 73.48 598.44 72.58 598.44 70.82L598.37 44.31H596.85C595.13 44.32 594.23 42.98 594.22 41.64C594.22 40.3 595.11 38.97 596.84 38.96H598.36L598.35 33.33C598.34 27.99 602.12 24.04 607.23 24.02C608.96 24.01 609.86 25.35 609.86 26.68C609.87 28.02 608.98 29.36 607.25 29.36Z" fill="white"/>
        <path d="M630.19 73.4C625.15 73.41 621.14 69.27 621.12 64.14L621.07 44.24L618.66 44.25C616.94 44.26 616.03 42.92 616.03 41.59C616.03 40.25 616.92 38.91 618.65 38.91L621.07 38.9L621.04 26.66C621.04 24.9 622.34 23.98 623.66 23.98C624.97 23.97 626.29 24.89 626.29 26.64L626.32 38.88L630.05 38.87C631.78 38.86 632.68 40.2 632.68 41.53C632.68 42.87 631.79 44.21 630.06 44.21L626.33 44.22L626.38 64.05C626.39 66.51 628.26 67.91 630.4 68.05C632.06 68.11 632.82 69.45 632.82 70.71C632.8 72.05 631.98 73.39 630.19 73.4Z" fill="white"/>
        <path d="M680.2 41.9L672.13 71.31C671.86 72.23 671.03 73.28 669.58 73.29H669.03C667.79 73.29 666.68 72.17 666.4 71.26C664.73 65.21 660.27 48.35 659.85 47.3C659.51 48.42 655.13 65.31 653.56 71.3C653.35 72.22 652.32 73.34 651.01 73.35H650.39C648.94 73.36 648.11 72.3 647.83 71.39L639.68 42.02C639.61 41.74 639.54 41.53 639.54 41.24C639.53 39.76 640.63 38.64 642.22 38.63C643.25 38.63 644.29 39.19 644.71 40.59L650.7 61.96L656.86 40.49C657.2 39.3 658.17 38.59 659.82 38.59H659.89C661.96 38.58 662.58 39.43 662.86 40.48L669.19 61.98L675.14 40.52C675.55 39.11 676.52 38.55 677.55 38.54C679.14 38.54 680.24 39.66 680.25 41.14C680.27 41.41 680.27 41.62 680.2 41.9Z" fill="white"/>
        <path d="M711.09 73.18L710.6 73.11C708.25 72.77 706.8 71.71 705.9 70.38C703.9 72.15 701.28 73.2 698.45 73.21H697.83C692.24 73.22 686.71 69.65 686.69 63.11C686.69 62.83 686.69 62.55 686.69 62.27C687.14 51.16 702.48 53.09 704.12 50.69C704.33 50.41 704.33 49.85 704.33 49.5C704.32 45.35 701.76 43.81 698.72 43.82H698.24C695.41 43.83 693.96 45.03 692.66 47.35C692.11 48.33 691.22 48.76 690.32 48.76C689.01 48.76 687.69 47.78 687.69 46.3C687.69 45.88 687.76 45.46 687.96 45.04C690.16 39.97 694.57 38.48 698.23 38.47H698.71C704.86 38.46 709.56 43.22 709.58 49.27L709.62 65.59C709.62 66.85 710.18 67.7 711.42 67.91C712.94 68.18 713.63 69.31 713.63 70.44C713.63 71.84 712.74 73.18 711.09 73.18ZM704.34 56.33C699.24 57.75 692.13 57.49 691.93 62.41C691.93 62.83 691.93 62.62 691.93 62.97C691.94 65.99 694.29 67.89 697.81 67.88H698.43C701.67 67.87 704.36 65.19 704.35 61.89L704.34 56.33Z" fill="white"/>
        <path d="M736.52 46.18C735.83 46.18 735.07 45.9 734.38 45.2C733.82 44.64 732.93 43.73 731.2 43.73C727.13 43.74 726.58 46.13 726.59 48.45L726.65 70.32C726.66 72.22 725.35 73.14 724.04 73.14C722.73 73.14 721.41 72.24 721.41 70.34L721.34 41.09C721.33 39.4 722.71 38.41 724.02 38.41C724.92 38.41 725.82 38.82 726.3 39.81C726.3 39.81 727.68 38.4 731.27 38.39C733.89 38.38 736.79 39.36 738.46 41.82C738.94 42.52 739.08 43.08 739.08 43.65C739.07 45.12 737.9 46.18 736.52 46.18Z" fill="white"/>
        <path d="M765.16 58.13L750.11 58.17L750.12 61.76C750.13 65.07 752.76 67.73 756 67.72H756.69C759.38 67.71 761.17 66.09 762.07 64.12C762.55 62.92 763.45 62.43 764.34 62.43C765.72 62.42 767.04 63.62 767.04 65.17C767.04 65.52 766.97 65.94 766.77 66.37C765.12 70.31 761.34 73.06 756.71 73.08H756.02C749.88 73.1 744.89 68.05 744.88 61.79L744.85 49.7C744.83 43.44 749.79 38.37 755.93 38.35H756.62C762.76 38.33 767.75 43.17 767.76 49.71L767.77 55.48C767.78 56.86 766.61 58.13 765.16 58.13ZM762.52 49.7C762.51 46.25 759.74 43.66 756.7 43.67H756.01C752.76 43.68 750.08 46.36 750.09 49.66L750.1 53.18L762.53 53.15L762.52 49.7Z" fill="white"/>
        <path fill-rule="evenodd" clip-rule="evenodd" d="M67.0201 13.08H111.49C116.48 13.08 120.52 17.2 120.51 22.28V88.22C120.51 93.3 116.47 97.42 111.48 97.42H9.13013C4.14014 97.42 0.100098 93.3 0.100098 88.22V29.95C0.100098 28.69 0.360168 27.46 0.840149 26.31L9.57013 5.65998C10.9901 2.28998 14.2501 0.0999756 17.8601 0.0999756H55.8001C59.4901 0.0999756 62.8101 2.37998 64.1801 5.86998C64.1801 5.86998 65.6201 9.51998 67.0201 13.08ZM64.98 58.67H77.2801C80.2101 58.67 81.73 56.4 81.73 54.13C81.73 51.87 80.2101 49.6 77.2801 49.6H64.98V37.06C64.98 34.07 62.7601 32.52 60.5301 32.52C58.3101 32.52 56.0801 34.08 56.0801 37.06V49.6H43.7801C40.8501 49.6 39.3301 51.86 39.3301 54.13C39.3301 56.4 40.8501 58.67 43.7801 58.67H56.0801V71.2C56.0801 74.18 58.3001 75.73 60.5301 75.73C62.7501 75.73 64.98 74.18 64.98 71.2V58.67Z" fill="white"/>
    </g>
    <defs>
        <clipPath id="clip0_6_221">
            <rect width="768" height="98" fill="white"/>
        </clipPath>
    </defs>
</svg>
